<?xml version="1.0" encoding="utf-8"?>
<!-- Generator: Adobe Illustrator 22.1.0, SVG Export Plug-In . SVG Version: 6.00 Build 0)  -->
<svg version="1.1" id="Layer_1" xmlns="http://www.w3.org/2000/svg" xmlns:xlink="http://www.w3.org/1999/xlink" x="0px" y="0px"
	 viewBox="0 0 150 150" style="enable-background:new 0 0 150 150;" xml:space="preserve">
<g>
	<g>
		<path d="M61.3,127.6c20.9-20.9,41.7-41.7,62.6-62.6c1.3-1.3-0.8-3.5-2.1-2.1c-20.9,20.9-41.7,41.7-62.6,62.6
			C57.8,126.9,59.9,129,61.3,127.6L61.3,127.6z"/>
	</g>
</g>
<g>
	<g>
		<path d="M71.4,115.3c-8.5-8.5-17-17-25.5-25.5c-1.3-1.3-3.5,0.8-2.1,2.1c8.5,8.5,17,17,25.5,25.5
			C70.7,118.9,72.9,116.7,71.4,115.3L71.4,115.3z"/>
	</g>
</g>
<g>
	<g>
		<path d="M45.6,91.9c16.1-16.1,32.1-32.1,48.1-48.1c1.3-1.3-0.8-3.5-2.1-2.1C75.5,57.8,59.5,73.8,43.5,89.8
			C42.1,91.2,44.2,93.3,45.6,91.9L45.6,91.9z"/>
	</g>
</g>
<g>
	<g>
		<path d="M91.7,44c8.1,8.1,16.2,16.2,24.3,24.3c1.3,1.3,3.5-0.8,2.1-2.1C110,58.1,102,50,93.9,41.9C92.5,40.5,90.4,42.6,91.7,44
			L91.7,44z"/>
	</g>
</g>
</svg>
